<svg width="201" height="201" viewBox="0 0 201 201" fill="none" xmlns="http://www.w3.org/2000/svg">
<path d="M106.781 9.60246V6.28125C106.781 2.81243 103.969 0 100.5 0C97.0312 0 94.2188 2.81243 94.2188 6.28125V9.60246C43.5459 12.5813 0 51.677 0 103.641C0 108.213 4.73567 111.244 8.88012 109.36C37.0123 96.5742 55.3064 111.582 58.0387 114.052C60.174 116.587 64.3789 117.243 67.3703 114.256C72.3282 109.721 82.1595 105.07 94.2188 103.935V179.016C94.2188 191.138 104.081 201 116.203 201C128.325 201 138.188 191.138 138.188 179.016C138.188 175.547 135.375 172.734 131.906 172.734C128.437 172.734 125.625 175.547 125.625 179.016C125.625 184.211 121.399 188.438 116.203 188.438C111.008 188.438 106.781 184.211 106.781 179.016V103.935C118.497 105.037 128.311 109.473 133.594 114.225C134.352 114.926 135.058 115.596 136.382 115.979C138.741 116.713 141.374 115.917 142.946 114.071C145.709 111.571 164 96.5781 192.12 109.36C196.266 111.245 201 108.211 201 103.641C201 51.7053 157.489 12.5833 106.781 9.60246Z" fill="white"/>
</svg>
